<?xml version="1.0" encoding="UTF-8"?>
<svg xmlns="http://www.w3.org/2000/svg" viewBox="0 0 500 500">
  <defs>
    <style>
      .cls-1 {
        fill: #fff;
      }

      .cls-2 {
        fill: #cbcad8;
      }

      .cls-3 {
        fill: #e2e1e6;
      }

      .cls-4 {
        fill: #5d9dc1;
      }

      .cls-5 {
        fill: #447ea5;
      }

      .cls-6 {
        fill: #c1c1c1;
      }

      .cls-7 {
        fill: #253556;
      }

      .cls-8 {
        fill: #31506d;
      }
    </style>
  </defs>
  <g id="BACKGROUND">
    <rect class="cls-4" width="500" height="500"/>
  </g>
  <g id="OBJECTS">
    <g>
      <path class="cls-8" d="M362.84,269.33c-13.35,2.11-39.55,11.88-65.09,9.43-25.54-2.44-47.18-5.41-51.62-6.56-4.25-1.1-9.52-2.19-13.87-1.34,.61-.22,.93-.81,1-1.58-4.09,2.68-7.98,5.64-11.85,8.62,10.91-3.3,22.46-1.84,22.46-1.84,0,0,48.81,9.32,74.96,5.65,26.15-3.66,74.06-18.25,92.93-15.86-13.85-4.57-35.57,1.36-48.93,3.46Z"/>
      <path class="cls-7" d="M204.11,284.47s31.11,3.33,38.89,3.33,5.56-11.11,5.56-11.11c0,0-38.34,1.11-44.45,7.78Z"/>
      <path class="cls-8" d="M174.11,236.13s-6.67-35.56-15-33.89c-8.33,1.67-24.45,67.23-28.89,69.45-4.44,2.22-13.33,2.22-19.45,2.78-5.1,.46-9.45,5.56-13.33,7.78s-10,5.56-11.11,7.78c-1.11,2.22-1.67,5.56,16.67,4.44,18.34-1.11,54.45-3.89,71.12-58.34Z"/>
      <path class="cls-3" d="M198.56,204.46c-5.44-.56-35,42.23-46.12,56.12-11.11,13.89-20.56,13.33-26.11,20s-6.11,6.67-15,9.45c-8.89,2.78-20,5-20,5,0,0,18.89,2.22,50,2.78,31.11,.56,68.85-9.89,73.9-13.33,12.22-8.33,31.11-6.11,31.11-6.11,0,0,48.89,8.89,75.01,5,26.11-3.89,73.9-18.89,92.79-16.67-13.89-4.44-35.56,1.67-48.89,3.89s-39.45,12.22-65.01,10c-25.56-2.22-47.23-5-51.67-6.11-4.44-1.11-10-2.22-14.45-1.11,2.78,0,1.67-5.56-1.67-7.22-3.33-1.67-9.45,1.11-9.45,1.11,0,0-8.33-61.12-24.45-62.78Z"/>
      <path class="cls-6" d="M149.66,278.35s-6.67,6.67-13.89,10.02c9.8,3.48,13.89-10.02,13.89-10.02Z"/>
      <path class="cls-6" d="M156.89,281.13s-6.67,6.67-13.89,10.02c9.8,3.48,13.89-10.02,13.89-10.02Z"/>
      <path class="cls-6" d="M164.66,283.35s-6.67,6.67-13.89,10.02c9.8,3.48,13.89-10.02,13.89-10.02Z"/>
      <path d="M112.44,284.19c0,1.38-.75,2.5-1.67,2.5s-1.67-1.12-1.67-2.5,.75-2.5,1.67-2.5,1.67,1.12,1.67,2.5Z"/>
      <path class="cls-2" d="M321.35,283.35c26.11-3.89,73.9-18.89,92.79-16.67-13.89-4.44-35.56,1.67-48.89,3.89-13.33,2.22-39.45,12.22-65.01,10-25.56-2.22-47.23-5-51.67-6.11-4.26-1.07-9.53-2.11-13.88-1.22,2.02-.74,.84-5.58-2.23-7.12-3.33-1.67-9.45,1.11-9.45,1.11,0,0-8.33-61.12-24.45-62.78-1.59-.16-5.24,3.37-9.89,8.81,4.92,.23,10.92,3.44,14.89,15.64,7.78,23.89,11.67,25.56,1.11,43.34s-30.56,15-37.78,19.45c-7.22,4.44-37.23,6.11-46.67,3.89-3.78-.89-8.36-2.94-12.96-4.36-7.88,2.19-15.93,3.8-15.93,3.8,0,0,18.89,2.22,50,2.78,31.11,.56,68.85-9.89,73.9-13.33,12.22-8.33,31.11-6.11,31.11-6.11,0,0,48.89,8.89,75.01,5Z"/>
      <path class="cls-5" d="M112.64,277.2c-.16-.57-.59-.97-1.14-1.14-.25-.08-.51-.1-.77-.13-.2-.02-.4,0-.6,.03-.45,.06-.89,.19-1.28,.44-.08,.05-.15,.11-.22,.17-.46,.17-.84,.37-1.2,.71-.36,.34-.6,.78-.76,1.24-.16,.49-.01,1.03,.29,1.43,.29,.38,.78,.68,1.28,.64,.4-.03,.81-.08,1.2-.18,.39-.1,.77-.26,1.14-.43,.61-.28,1.17-.71,1.63-1.19,.4-.43,.58-1.02,.42-1.59Z"/>
      <path class="cls-5" d="M102.47,284.38c-.07-.2-.18-.38-.34-.53-.02-.02-.04-.03-.06-.05l-.2-.26c-.2-.2-.44-.34-.72-.42-.15-.03-.31-.05-.47-.06-.01,0-.03,0-.04,0,0,0,0,0-.01,0-.07,0-.37,.05-.44,.06,0,0-.01,0-.02,0-.01,0-.03,0-.04,.01,0,0,0,0,0,0-.08,.03-.32,.13-.39,.17,0,0-.01,0-.02,.01-.01,0-.03,.01-.04,.02,0,0,0,0,0,0-.1,.07-.24,.18-.34,.26,0,0-.01,0-.02,.01-.01,.01-.02,.02-.03,.03,0,0,0,.01-.01,.02-.09,.11-.18,.23-.26,.34,0,.01-.02,.03-.03,.04,0,.01-.02,.03-.02,.04,0,0,0,.01,0,.02-.04,.09-.13,.3-.17,.39,0,0,0,.01,0,.02-.03,.09-.04,.21-.05,.3-.01,.09-.04,.2-.03,.3,.01,.14,.03,.32,.07,.47,0,0,0,.01,0,.02,0,0,0,0,0,.01,.04,.11,.12,.29,.17,.4,0,.01,.01,.02,.02,.04,0,0,0,.01,.01,.02,.04,.06,.21,.28,.26,.33,0,0,0,0,0,.01,0,.01,.02,.02,.03,.03,.06,.05,.13,.1,.18,.14,.04,.03,.12,.1,.18,.14,.01,0,.02,.01,.03,.02,.14,.07,.28,.13,.43,.18,.01,0,.03,0,.04,0,0,0,0,0,0,0,.08,.01,.35,.05,.44,.06,0,0,.01,0,.02,0,.01,0,.03,0,.04,0,0,0,.01,0,.02,0,0,0,0,0,.01,0,.13-.01,.31-.04,.44-.06,.03,0,.05-.01,.08-.02,0,0,.01,0,.02,0,.13-.05,.28-.11,.4-.17,.01,0,.03-.01,.04-.02,.01,0,.03-.02,.04-.02,.06-.04,.13-.1,.17-.13,.04-.03,.12-.09,.17-.13,0,0,.01,0,.02-.01,.01-.01,.02-.02,.03-.03,0,0,0,0,0,0,.08-.09,.19-.24,.26-.34,0,0,0-.01,.01-.02,0-.01,.02-.03,.02-.04,.03-.07,.14-.32,.17-.39,0,0,0,0,0-.01,0,0,0-.01,0-.02,0,0,0-.02,0-.02,0,0,0,0,0,0,.02-.11,.05-.33,.06-.44,0-.02,0-.03,0-.05,0-.23-.04-.44-.14-.63Z"/>
      <path class="cls-5" d="M119.23,277.61s-.01-.02-.02-.03c0,0,0,0,0-.01,0,0,0,0,0,0-.04-.06-.09-.11-.13-.17-.04-.06-.09-.11-.13-.17,0,0-.01-.01-.02-.02,0,0,0,0-.01,0-.05-.05-.21-.16-.17-.13,0,0-.11-.09-.17-.13-.13-.09-.29-.14-.44-.19,0,0-.02,0-.02,0-.05,0-.19-.03-.23-.03-.04,0-.17-.02-.22-.03,0,0,0,0-.01,0,0,0-.02,0-.03,0-.05,0-.38,.05-.44,.06,0,0,0,0,0,0,0,0-.01,0-.02,0,0,0-.02,0-.03,0,0,0,0,0-.01,0-.07,.03-.18,.07-.2,.08-.04,.02-.14,.05-.2,.09-.02,0-.04,.02-.06,.03-.13,.09-.26,.19-.38,.29-.02,.02-.03,.03-.05,.05,0,0-.02,.02-.02,.03-.09,.12-.19,.24-.28,.36-.03,.04-.05,.08-.07,.12-.06,.14-.12,.28-.18,.42,0,.01,0,.02-.01,.03,0,.02-.01,.04-.01,.06-.03,.15-.07,.33-.06,.49,0,0,0,.02,0,.03,0,.06,.05,.38,.06,.44,0,0,0,0,0,0,0,0,0,0,0,.01,0,.01,0,.02,0,.03,.02,.04,.15,.36,.17,.39,0,0,0,0,0,0,0,0,0,0,0,.01,.08,.13,.17,.27,.29,.37,.06,.05,.23,.2,.36,.27,0,0,0,0,.01,0,.06,.03,.22,.09,.2,.08,.03,.01,.14,.06,.2,.09,.01,0,.02,0,.04,.01,0,0,.01,0,.02,0,0,0,0,0,0,0,.14,.02,.3,.04,.44,.06,.23,0,.44-.04,.63-.14,.2-.07,.38-.18,.53-.34,.15-.14,.26-.31,.33-.51,.02-.02,.04-.03,.06-.05,.2-.2,.34-.44,.42-.72,.02-.15,.04-.29,.06-.44,0-.3-.08-.57-.22-.83Z"/>
      <path class="cls-5" d="M144.98,256.44c-.05-.21-.15-.4-.29-.56-.07-.12-.17-.22-.29-.29-.16-.14-.34-.24-.56-.29-.43-.1-.88-.07-1.26,.17-.09,.05-.18,.11-.26,.16-.38,.04-.77,.17-1.03,.46-.08,.08-.12,.18-.18,.27-.02,0-.03,.02-.05,.03-.36,.22-.64,.57-.75,.98-.07,.22-.08,.44-.03,.65,0,.22,.07,.42,.19,.61,.09,.14,.2,.27,.32,.38,.02,.12,.06,.24,.12,.35,.07,.2,.18,.38,.34,.53,.11,.09,.22,.17,.33,.26,.19,.12,.39,.18,.61,.19,.14,.04,.29,.04,.43,0,.22,0,.42-.07,.61-.19,.34-.22,.67-.56,.75-.98,.03-.16,.09-.31,.14-.47,.09-.18,.18-.35,.3-.51,.05-.05,.09-.11,.14-.16,.16-.15,.27-.32,.34-.53,.1-.2,.15-.41,.14-.63-.02-.15-.04-.29-.06-.44Z"/>
      <path class="cls-5" d="M154.37,232.87c-.08-.28-.22-.52-.42-.72-.15-.16-.32-.27-.53-.34-.43-.18-1.06-.22-1.46,.08-.25,.19-.5,.38-.72,.6-.22,.22-.41,.48-.59,.73-.31,.42-.52,.9-.7,1.38-.36,.97-.38,2.06-.15,3.06,.18,.78,1.07,1.32,1.85,1.17,.55,.14,1.17-.01,1.56-.42,.68-.7,1.19-1.62,1.37-2.59,.18-.98,.18-2.02-.21-2.95Z"/>
      <path class="cls-5" d="M158.95,221.67c0-.06-.02-.11-.04-.17-.05-.14-.12-.29-.18-.43,0-.02-.01-.03-.02-.05-.01-.03-.03-.05-.05-.08-.1-.14-.19-.27-.31-.4-.11-.12-.31-.25-.39-.31-.02-.02-.05-.03-.07-.05,0,0-.01,0-.02,0-.12-.06-.28-.12-.4-.17-.01,0-.03-.01-.04-.02-.02,0-.03,0-.05-.01-.11-.02-.33-.05-.44-.06,0,0-.02,0-.03,0-.17-.01-.38,.04-.53,.06-.21,.05-.4,.15-.56,.29-.09,.06-.15,.16-.22,.24-.02,.02-.06,.04-.07,.06-.02,.02-.03,.03-.05,.05-.07,.08-.2,.25-.26,.34,0,0,0,0,0,.01,0,0-.01,.02-.02,.03-.08,.14-.14,.3-.19,.45-.06,.18-.07,.38-.08,.58,0,.03,0,.05,0,.08,0,.01,0,.02,0,.04,.02,.15,.04,.32,.06,.47,0,.05,.02,.1,.04,.15,.06,.15,.13,.37,.23,.52,.05,.07,.1,.14,.15,.19,.04,.06,.1,.13,.15,.19,.02,.02,.04,.04,.06,.05,.3,.26,.46,.36,.83,.48,.18,.06,.38,.09,.57,.08,.17-.01,.34-.03,.5-.07,.01,0,.03,0,.04-.01,0,0,.02,0,.02,0,.12-.05,.29-.11,.4-.17,.02-.01,.05-.03,.07-.04,.09-.06,.25-.19,.34-.26,0,0,0,0,.01-.01,.01-.01,.02-.02,.03-.03,.11-.12,.21-.25,.29-.38,0-.01,.01-.02,.02-.03,0,0,0-.01,0-.02,.06-.13,.12-.28,.17-.41,0-.02,.02-.05,.02-.08,0-.01,0-.02,0-.04,.03-.15,.05-.32,.06-.47,.02-.19-.04-.45-.06-.6Z"/>
      <path class="cls-5" d="M153.44,245.61c0-.3-.08-.57-.22-.83,0-.02-.02-.04-.03-.06,0,0-.01-.02-.02-.03-.08-.12-.18-.25-.27-.35-.02-.02-.03-.03-.05-.05-.12-.1-.25-.21-.38-.29-.02-.01-.04-.02-.06-.03-.13-.06-.28-.12-.41-.17-.01,0-.02,0-.04-.01-.02,0-.04-.01-.06-.01-.15-.03-.31-.05-.46-.06-.01,0-.03,0-.04,0-.02,0-.04,0-.07,0-.01,0-.02,0-.04,0-.15,.01-.31,.04-.47,.06-.05,0-.1,.02-.15,.04-.15,.05-.3,.12-.45,.19-.02,.01-.05,.02-.07,.04,0,0-.02,.01-.03,.02-.12,.08-.24,.18-.35,.27-.02,.02-.04,.03-.05,.05,0,0-.02,.02-.02,.03-.09,.1-.19,.24-.27,.35-.01,.02-.03,.04-.04,.06-.04,.07-.07,.16-.09,.22-.03,.06-.07,.15-.09,.22,0,.02-.01,.05-.02,.07-.02,.15-.05,.31-.06,.46,0,.01,0,.02,0,.03,0,.01,0,.03,0,.04,0,.07,.03,.21,.03,.23,0,.04,.02,.16,.03,.24,0,.02,0,.04,.02,.06,.05,.14,.11,.28,.17,.41,0,.01,.01,.02,.02,.04,.09,.16,.21,.31,.33,.44,.02,.02,.03,.03,.05,.05,.11,.09,.23,.19,.35,.27,.01,0,.02,.02,.03,.02,.02,.01,.04,.02,.06,.04,.01,0,.02,.01,.03,.02,.14,.06,.28,.12,.42,.18,.05,.02,.1,.03,.15,.04,.15,.02,.31,.05,.47,.06,.01,0,.03,0,.04,0,.03,0,.05,0,.08,0,.15-.01,.32-.04,.47-.06,.01,0,.03,0,.04,0,.03,0,.05-.01,.08-.02,.14-.05,.29-.11,.42-.18,.01,0,.02-.01,.03-.02,.01,0,.02-.02,.04-.02,0,0,0,0,.01,0,.11-.08,.24-.18,.34-.27,.02-.02,.04-.04,.06-.06,.06-.07,.21-.26,.26-.34,0,0,.01-.01,.02-.02,0-.01,.02-.03,.02-.04,.12-.19,.18-.39,.19-.61,.03-.14,.03-.27,.01-.41,.01-.09,.02-.18,.04-.27Z"/>
      <path class="cls-5" d="M161.8,209.58c-.05-.13-.11-.26-.16-.39-.15-.25-.34-.44-.59-.59-.13-.06-.26-.11-.39-.16-.29-.08-.58-.08-.87,0-.4,.1-.72,.31-1.02,.58-.02,.02-.04,.04-.06,.06-.11,.12-.21,.26-.3,.39-.04,.05-.07,.1-.09,.16-.07,.16-.18,.37-.22,.55-.05,.19-.07,.4-.08,.6,0,.2,.03,.4,.07,.6,.04,.2,.14,.39,.22,.56,.1,.19,.24,.34,.42,.46,.16,.14,.34,.24,.56,.29,.22,.07,.43,.08,.65,.03,.22,0,.42-.07,.61-.19l.33-.26c.2-.2,.34-.44,.42-.72,.02-.13,.03-.25,.05-.38,.11-.1,.22-.19,.29-.32,.12-.19,.18-.39,.19-.61,.05-.22,.04-.43-.03-.65Z"/>
      <path class="cls-5" d="M162.38,231.27c-.05-.21-.15-.4-.29-.56-.12-.18-.27-.32-.46-.42-.13-.05-.26-.11-.39-.16-.29-.08-.58-.08-.87,0-.13,.06-.26,.11-.39,.16-.25,.15-.44,.34-.59,.59-.37,.55-.74,1.11-1.11,1.66-.12,.19-.18,.39-.19,.61-.05,.22-.04,.44,.03,.65,.05,.21,.15,.4,.29,.56,.12,.18,.27,.32,.46,.42,.13,.05,.26,.11,.39,.16,.29,.08,.58,.08,.87,0,.13-.06,.26-.11,.39-.16,.25-.15,.44-.34,.59-.59,.37-.55,.74-1.11,1.11-1.66,.12-.19,.18-.39,.19-.61,.05-.22,.04-.44-.03-.65Z"/>
      <path class="cls-5" d="M233.47,282.36c-.08-.28-.22-.52-.42-.72-.11-.09-.22-.17-.33-.26-.26-.15-.53-.22-.83-.22h-.56c-.23,0-.44,.04-.63,.14-.2,.07-.38,.18-.53,.34-.16,.15-.27,.32-.34,.53-.1,.19-.15,.41-.14,.63,.02,.15,.04,.29,.06,.44,.08,.28,.22,.52,.42,.72l.33,.26c.26,.15,.53,.22,.83,.22h.56c.23,0,.44-.04,.63-.14,.2-.07,.38-.18,.53-.34,.16-.15,.27-.32,.34-.53,.1-.19,.15-.41,.14-.63l-.06-.43Z"/>
      <path class="cls-5" d="M241.34,279.5c-2.11,0-2.11,3.27,0,3.27s2.11-3.27,0-3.27Z"/>
      <path class="cls-4" d="M95.02,287.45s0-.03,0-.05c-.01-.1-.03-.19-.04-.29-.05-.18-.15-.35-.28-.48-.01-.01-.02-.02-.03-.03-.07-.06-.16-.13-.23-.18,0,0-.02-.01-.02-.01-.11-.06-.22-.11-.34-.14,0,0-.01,0-.02,0-.1-.02-.21-.03-.31-.04-.01,0-.03,0-.05,0,0,0-.02,0-.02,0-.1,0-.21,.03-.3,.04-.02,0-.03,0-.05,0-.12,.03-.23,.09-.34,.14-.01,0-.03,.01-.04,.02,0,0-.01,0-.02,.01-.08,.06-.16,.12-.24,.18-.02,.02-.05,.04-.07,.07-.06,.07-.12,.15-.18,.23,0,0,0,.01-.01,.02,0,.01-.01,.03-.02,.04-.02,.04-.1,.2-.12,.3,0,0,0,.02,0,.02,0,0,0,0,0,.01-.01,.07-.03,.22-.04,.3,0,.02,0,.03,0,.05,0,.06,.01,.12,.02,.17,0,.05,.01,.11,.02,.17,0,.01,0,.03,.01,.04,.03,.09,.08,.19,.11,.27,0,0,0,.02,.01,.02,0,.01,.01,.02,.02,.03,.05,.08,.12,.16,.18,.23,0,0,.01,.01,.02,.02,.04,.04,.1,.08,.14,.11,.04,.03,.09,.08,.14,.11,.01,0,.02,.01,.04,.02,.09,.04,.19,.08,.28,.12,0,0,.01,0,.02,0,.01,0,.03,0,.04,.01,.11,.03,.22,.03,.33,.05,.03,0,.06,0,.09,0,0,0,.02,0,.02,0,.1-.01,.21-.02,.31-.04,.02,0,.03,0,.05-.01,0,0,.01,0,.02,0,.09-.03,.19-.08,.28-.12,.01,0,.03-.01,.04-.02,0,0,.01,0,.02-.01,.07-.05,.16-.12,.23-.17,0,0,0,0,0,0,.01-.01,.02-.02,.03-.03,0,0,0,0,0,0,.05-.06,.13-.16,.17-.23,0,0,.01-.01,.01-.02,0,0,0-.02,.01-.02,.04-.09,.08-.19,.12-.28,.05-.14,.05-.29,.02-.43,0-.06-.04-.11-.05-.17Z"/>
      <path class="cls-4" d="M107.93,282.51c-.05-.18-.15-.35-.28-.48-.07-.06-.15-.11-.22-.17-.17-.1-.35-.15-.55-.15h-.56c-.15,0-.29,.03-.42,.09-.14,.04-.25,.12-.35,.23-.11,.1-.18,.22-.23,.35-.07,.13-.1,.27-.09,.42l.04,.29c.05,.18,.15,.35,.28,.48,.07,.06,.15,.11,.22,.17,.17,.1,.35,.15,.55,.15h.56c.15,0,.29-.03,.42-.09,.14-.04,.25-.12,.35-.23,.11-.1,.18-.22,.23-.35,.07-.13,.1-.27,.09-.42-.01-.1-.03-.19-.04-.29Z"/>
      <path class="cls-4" d="M138.33,264.61c-.12-.21-.31-.36-.52-.45-.13-.06-.27-.07-.4-.08-.08-.04-.15-.1-.23-.12-.28-.06-.59-.05-.84,.11-.24,.16-.42,.37-.5,.65-.05,.17-.1,.35-.16,.52-.04,.04-.08,.07-.12,.11-.2,.18-.32,.5-.32,.77,0,.11,.03,.23,.07,.34-.03,.09-.06,.19-.08,.28-.01,.1-.03,.19-.04,.29l.04,.29c.06,.23,.2,.42,.39,.57,.35,.27,.83,.31,1.21,.09,1-.57,1.64-1.68,1.65-2.83,0-.18-.06-.39-.15-.55Z"/>
      <path class="cls-4" d="M145.6,246.53c-.06-.33-.34-.58-.63-.71-.12-.05-.24-.07-.36-.08-.14-.07-.29-.11-.44-.1-.27,.01-.6,.1-.77,.32-.18,.23-.35,.44-.46,.7-.12,.26-.23,.53-.29,.81,0,0,0,.02,0,.03-.02,.06-.05,.12-.07,.18-.05,.19-.07,.39-.09,.58-.03,.3,.01,.62,.09,.91,.07,.26,.27,.51,.5,.65,.15,.09,.34,.12,.53,.13,.05,0,.09,.03,.15,.03,.2,0,.38-.05,.55-.15,.15-.11,.3-.22,.44-.36,.13-.13,.25-.29,.36-.44,.18-.24,.29-.5,.4-.77,.22-.56,.23-1.17,.12-1.75Z"/>
      <path class="cls-4" d="M151.15,227.88c-.04-.14-.12-.25-.23-.35-.07-.06-.15-.11-.22-.17-.17-.1-.35-.15-.55-.15-.03,0-.07,0-.1,.01-.07-.11-.15-.21-.25-.28-.11-.1-.23-.16-.37-.2-.1-.01-.19-.03-.29-.04-.2,0-.38,.05-.55,.15-.07,.06-.15,.11-.22,.17-.14,.14-.23,.3-.28,.48-.03,.11-.04,.24-.05,.35,0,.03,0,.05,0,.08,0,.1,.02,.21,.04,.31,0,.01,0,.02,0,.03,0,.03,.01,.05,.02,.08,.05,.13,.1,.27,.18,.38,.08,.11,.16,.24,.27,.32,.11,.09,.22,.19,.35,.25,.1,.05,.21,.09,.32,.14,.03,.01,.05,.02,.08,.03,.3,.09,.57,.07,.87,.02,.14-.03,.29-.09,.41-.16,.1-.06,.19-.14,.28-.21,.02-.02,.05-.04,.07-.07,.11-.1,.18-.22,.23-.35,.07-.13,.1-.27,.09-.42,0-.15-.03-.29-.09-.42Z"/>
      <path class="cls-4" d="M156.27,215.28c-.03-.14-.1-.27-.2-.37-.08-.12-.18-.21-.31-.28-.09-.04-.17-.07-.26-.11-.19-.05-.39-.05-.58,0-.09,.04-.17,.07-.26,.11-.16,.1-.29,.23-.39,.39-.19,.37-.37,.74-.56,1.11-.08,.13-.12,.26-.13,.41-.03,.15-.03,.29,.02,.44,.03,.14,.1,.27,.2,.37,.08,.12,.18,.21,.31,.28,.09,.04,.17,.07,.26,.11,.19,.05,.39,.05,.58,0,.09-.04,.17-.07,.26-.11,.16-.1,.29-.23,.39-.39,.19-.37,.37-.74,.56-1.11,.08-.13,.12-.26,.13-.41,.03-.15,.03-.29-.02-.44Z"/>
      <path class="cls-4" d="M167.26,216.05c-.23-.44-.58-.78-.97-1.07-.42-.32-.91-.48-1.43-.53-.46-.05-.97,.08-1.36,.33-.28,.07-.54,.17-.78,.36-.36,.28-.59,.63-.76,1.05-.31,.76-.12,1.65,.43,2.24,.17,.18,.41,.27,.66,.29,.02,.02,.04,.04,.06,.06,.36,.32,.76,.55,1.22,.71,.46,.16,.94,.17,1.42,.09,1.05-.18,1.78-1.14,1.85-2.17,.03-.47-.12-.96-.34-1.37Zm-2.75,1.03s-.04-.07-.06-.1c0-.01,0-.02-.01-.04,0-.02,0-.03,0-.05,0-.03,.01-.07,.03-.1,0-.02,0-.06,0-.08,.03-.02,.06-.02,.09-.04,.02-.02,.05-.03,.07-.04,.01,0,.03,0,.04-.01,.01,0,.03,0,.04,0,.05,.01,.1,.02,.15,.04,.07,.04,.14,.08,.21,.12,.07,.06,.14,.13,.2,.2,.04,.06,.08,.12,.11,.18,.01,.04,.02,.08,.03,.12,0,.02,0,.03,0,.05,0,0,0,.01,0,.02,0,.01-.01,.02-.02,.04,0,0-.01,.01-.02,.02,0,0-.01,0-.02,0-.02,0-.03,0-.05,.01-.05,0-.09,0-.14,0-.08-.02-.17-.04-.25-.07-.09-.05-.18-.1-.26-.15-.05-.04-.1-.09-.14-.14Z"/>
      <path class="cls-4" d="M228.45,282.38c-.04-.14-.12-.25-.23-.35-.07-.06-.15-.11-.22-.17-.17-.1-.35-.15-.55-.15-.1,.01-.19,.03-.29,.04-.18,.05-.35,.15-.48,.28l-.56,.56c-.11,.1-.18,.22-.23,.35-.07,.13-.1,.27-.09,.42,0,.15,.03,.29,.09,.42,.04,.14,.12,.25,.23,.35,.07,.06,.15,.11,.22,.17,.17,.1,.35,.15,.55,.15,.1-.01,.19-.03,.29-.04,.18-.05,.35-.15,.48-.28l.56-.56c.11-.1,.18-.22,.23-.35,.07-.13,.1-.27,.09-.42,0-.15-.03-.29-.09-.42Z"/>
      <path class="cls-4" d="M239.12,283.37c-1.4,0-1.41,2.18,0,2.18s1.41-2.18,0-2.18Z"/>
      <path class="cls-4" d="M236.89,278.93c-1.4,0-1.41,2.18,0,2.18s1.41-2.18,0-2.18Z"/>
      <path class="cls-4" d="M150.22,249.48c-1.4,0-1.41,2.18,0,2.18s1.41-2.18,0-2.18Z"/>
      <path class="cls-4" d="M146.33,237.81c-1.4,0-1.41,2.18,0,2.18s1.41-2.18,0-2.18Z"/>
      <path class="cls-4" d="M163.55,223.92c-1.4,0-1.41,2.18,0,2.18s1.41-2.18,0-2.18Z"/>
      <path class="cls-4" d="M100.33,293.91s14.27,.6,20.91-4.44c-5.11,7.79-17.32,6.04-20.91,4.44Z"/>
      <path class="cls-1" d="M183.72,235.57c-.8,1.1-1.59,2.23-2.38,3.36-.59,1.06-1.26,2.07-2.01,3.03-.37,.48-.78,.93-1.2,1.37-2.11,2.76-4.4,5.37-7.07,7.54-1.56,2.83-1.76,6.59,.69,8.98,2.45,2.39,6.32,2.36,9.43,1.58,6.47-1.63,13.02-6.19,14.75-12.58,6.81-25.21-10.72-15.31-12.19-13.27Z"/>
      <path class="cls-1" d="M168.45,264.68c-.72-1.71-2.05-2.93-3.77-3.6-1.78-.69-3.77-.39-5.23,.82-1.97,.86-3.52,2.69-4.03,4.78-.72,2.95,.77,5.95,3.5,7.26,2.66,1.28,6.01,1.07,8.12-1.16,2.02-2.13,2.55-5.43,1.42-8.11Z"/>
    </g>
  </g>
</svg>