<?xml version="1.0" encoding="UTF-8"?>
<svg xmlns="http://www.w3.org/2000/svg" viewBox="0 0 500 500">
  <defs>
    <style>
      .cls-1 {
        fill: #d68709;
      }

      .cls-2 {
        fill: #fff;
      }

      .cls-3 {
        fill: #fceeb6;
      }

      .cls-4 {
        fill: #a05f00;
      }

      .cls-5 {
        fill: #ef9d0c;
      }

      .cls-6 {
        fill: #f7b32d;
      }

      .cls-7 {
        fill: #fccb5b;
      }
    </style>
  </defs>
  <g id="BACKGROUND">
    <rect class="cls-7" width="500" height="500"/>
  </g>
  <g id="OBJECTS">
    <g>
      <path class="cls-4" d="M357.62,268.44c-12.74,2.01-37.72,11.33-62.08,9-24.36-2.33-45-5.16-49.23-6.26-4.06-1.05-9.07-2.09-13.23-1.27,.58-.21,.89-.77,.96-1.5-3.9,2.56-7.61,5.38-11.3,8.22,10.41-3.15,21.42-1.76,21.42-1.76,0,0,46.56,8.88,71.49,5.39,24.94-3.49,70.63-17.4,88.63-15.13-13.21-4.35-33.93,1.29-46.66,3.3Z"/>
      <path class="cls-1" d="M206.24,282.87s29.67,3.18,37.09,3.18,5.3-10.6,5.3-10.6c0,0-36.56,1.06-42.39,7.42Z"/>
      <path class="cls-1" d="M177.62,236.77s-6.36-33.91-14.31-32.32c-7.95,1.59-23.32,64.12-27.55,66.24-4.24,2.12-12.72,2.12-18.55,2.65-4.87,.44-9.01,5.3-12.72,7.42-3.71,2.12-9.54,5.3-10.6,7.42-1.06,2.12-1.59,5.3,15.9,4.24,17.49-1.06,51.93-3.71,67.83-55.64Z"/>
      <path class="cls-3" d="M200.94,206.57c-5.19-.54-33.38,40.27-43.98,53.52-10.6,13.25-19.61,12.72-24.91,19.08s-5.83,6.36-14.31,9.01c-8.48,2.65-19.08,4.77-19.08,4.77,0,0,18.02,2.12,47.69,2.65,29.67,.53,65.66-9.43,70.48-12.72,11.66-7.95,29.67-5.83,29.67-5.83,0,0,46.63,8.48,71.54,4.77,24.91-3.71,70.48-18.02,88.49-15.9-13.25-4.24-33.91,1.59-46.63,3.71-12.72,2.12-37.62,11.66-62,9.54-24.38-2.12-45.04-4.77-49.28-5.83-4.24-1.06-9.54-2.12-13.78-1.06,2.65,0,1.59-5.3-1.59-6.89-3.18-1.59-9.01,1.06-9.01,1.06,0,0-7.95-58.29-23.32-59.88Z"/>
      <path class="cls-5" d="M154.31,277.04s-6.36,6.36-13.25,9.55c9.35,3.32,13.25-9.55,13.25-9.55Z"/>
      <path class="cls-5" d="M161.2,279.69s-6.36,6.36-13.25,9.55c9.35,3.32,13.25-9.55,13.25-9.55Z"/>
      <path class="cls-5" d="M168.61,281.81s-6.36,6.36-13.25,9.55c9.35,3.32,13.25-9.55,13.25-9.55Z"/>
      <path class="cls-4" d="M118.8,282.61c0,1.32-.71,2.38-1.59,2.38s-1.59-1.07-1.59-2.38,.71-2.38,1.59-2.38,1.59,1.07,1.59,2.38Z"/>
      <path class="cls-5" d="M318.05,281.81c24.91-3.71,70.48-18.02,88.49-15.9-13.25-4.24-33.91,1.59-46.63,3.71-12.72,2.12-37.62,11.66-62,9.54-24.38-2.12-45.04-4.77-49.28-5.83-4.06-1.02-9.09-2.01-13.24-1.16,1.93-.7,.8-5.32-2.13-6.79-3.18-1.59-9.01,1.06-9.01,1.06,0,0-7.95-58.29-23.32-59.88-1.52-.16-5,3.22-9.43,8.4,4.69,.22,10.41,3.28,14.2,14.91,7.42,22.79,11.13,24.38,1.06,41.33-10.07,16.96-29.14,14.31-36.03,18.55-6.89,4.24-35.5,5.83-44.51,3.71-3.61-.85-7.98-2.8-12.36-4.16-7.51,2.09-15.19,3.63-15.19,3.63,0,0,18.02,2.12,47.69,2.65,29.67,.53,65.66-9.43,70.48-12.72,11.66-7.95,29.67-5.83,29.67-5.83,0,0,46.63,8.48,71.54,4.77Z"/>
      <path class="cls-6" d="M118.99,275.94c-.15-.54-.57-.92-1.09-1.09-.23-.08-.49-.1-.73-.12-.19-.02-.38,0-.57,.03-.43,.06-.85,.18-1.22,.42-.08,.05-.15,.1-.21,.16-.44,.16-.8,.36-1.15,.68-.35,.32-.57,.74-.72,1.19-.16,.47-.01,.99,.28,1.36,.28,.36,.74,.65,1.23,.61,.38-.03,.77-.08,1.14-.17,.37-.1,.74-.25,1.09-.41,.58-.27,1.12-.68,1.56-1.14,.39-.41,.55-.97,.4-1.52Z"/>
      <path class="cls-6" d="M109.3,282.79c-.06-.19-.17-.36-.32-.5-.02-.02-.04-.03-.06-.05l-.19-.25c-.19-.19-.42-.33-.69-.4-.15-.03-.3-.05-.45-.06-.01,0-.03,0-.04,0,0,0,0,0-.01,0-.07,0-.35,.05-.42,.06,0,0-.01,0-.02,0-.01,0-.03,0-.04,.01,0,0,0,0,0,0-.07,.03-.31,.13-.38,.16,0,0-.01,0-.02,0-.01,0-.02,.01-.04,.02,0,0,0,0,0,0-.09,.07-.23,.18-.32,.25,0,0-.01,0-.02,.01-.01,0-.02,.02-.03,.03,0,0,0,0-.01,.01-.09,.1-.17,.22-.25,.33,0,.01-.02,.02-.03,.04,0,.01-.01,.02-.02,.04,0,0,0,.01,0,.02-.04,.09-.12,.29-.16,.38,0,0,0,.01,0,.02-.03,.09-.04,.2-.05,.29-.01,.09-.04,.19-.03,.29,.01,.14,.03,.3,.06,.45,0,0,0,.01,0,.02,0,0,0,0,0,.01,.04,.1,.11,.28,.16,.38,0,.01,.01,.02,.02,.03,0,0,0,.01,.01,.02,.04,.06,.2,.26,.25,.32,0,0,0,0,0,.01,0,.01,.02,.02,.03,.03,.05,.05,.13,.1,.17,.13,.04,.03,.12,.1,.17,.13,0,0,.02,.01,.03,.02,.13,.06,.27,.13,.41,.17,.01,0,.02,0,.04,0,0,0,0,0,0,0,.08,.01,.34,.05,.42,.06,0,0,.01,0,.02,0,.01,0,.03,0,.04,0,0,0,.01,0,.02,0,0,0,0,0,.01,0,.13-.01,.3-.04,.42-.06,.03,0,.05,0,.08-.02,0,0,.01,0,.02,0,.12-.05,.26-.11,.38-.16,.01,0,.03-.01,.04-.02,.01,0,.02-.02,.04-.02,.06-.04,.13-.1,.17-.13,.04-.03,.11-.08,.17-.13,0,0,.01,0,.02-.01,.01-.01,.02-.02,.03-.03,0,0,0,0,0,0,.07-.09,.18-.23,.25-.32,0,0,0-.01,.01-.02,0-.01,.01-.03,.02-.04,.03-.06,.13-.31,.16-.38,0,0,0,0,0-.01,0,0,0-.01,0-.02,0,0,0-.02,0-.02,0,0,0,0,0,0,.02-.11,.04-.31,.06-.42,0-.02,0-.03,0-.05,0-.21-.04-.42-.13-.6Z"/>
      <path class="cls-6" d="M125.28,276.34s-.01-.02-.02-.03c0,0,0,0,0-.01,0,0,0,0,0,0-.04-.05-.08-.11-.12-.16-.04-.05-.08-.11-.12-.16,0,0-.01-.01-.02-.02,0,0,0,0-.01,0-.05-.04-.2-.15-.16-.13,0,0-.11-.09-.16-.13-.12-.09-.28-.14-.42-.18,0,0-.01,0-.02,0-.05,0-.18-.03-.22-.03-.04,0-.16-.02-.21-.03,0,0,0,0-.01,0,0,0-.02,0-.02,0-.05,0-.37,.05-.42,.06,0,0,0,0,0,0,0,0-.01,0-.02,0,0,0-.02,0-.03,0,0,0,0,0-.01,0-.06,.02-.17,.07-.19,.08-.04,.02-.13,.05-.19,.08-.02,0-.04,.02-.05,.03-.13,.09-.25,.18-.36,.28-.02,.01-.03,.03-.05,.05,0,0-.01,.02-.02,.02-.09,.11-.18,.23-.26,.34-.03,.04-.05,.07-.07,.12-.06,.13-.12,.27-.17,.4,0,.01,0,.02-.01,.03,0,.02-.01,.04-.01,.06-.03,.15-.06,.31-.06,.47,0,0,0,.02,0,.03,0,.06,.05,.36,.06,.42,0,0,0,0,0,0,0,0,0,0,0,.01,0,0,0,.02,0,.03,.02,.04,.14,.34,.16,.38,0,0,0,0,0,0,0,0,0,0,0,.01,.08,.13,.17,.26,.28,.36,.06,.05,.22,.19,.34,.26,0,0,0,0,.01,0,.06,.03,.21,.09,.19,.08,.03,.01,.13,.06,.19,.08,.01,0,.02,0,.03,.01,0,0,.01,0,.02,0,0,0,0,0,0,0,.14,.02,.29,.04,.42,.06,.21,0,.42-.04,.6-.13,.19-.06,.36-.17,.5-.32,.15-.14,.25-.3,.31-.48,.02-.01,.04-.03,.06-.04,.19-.19,.33-.42,.4-.69,.02-.14,.04-.28,.06-.41,0-.28-.07-.54-.21-.79Z"/>
      <path class="cls-6" d="M149.84,256.14c-.05-.2-.14-.38-.28-.53-.07-.12-.16-.21-.28-.28-.15-.14-.33-.23-.53-.28-.41-.09-.84-.06-1.2,.16-.08,.05-.17,.1-.25,.15-.37,.04-.73,.17-.98,.44-.07,.08-.11,.17-.17,.26-.01,0-.03,.02-.05,.03-.34,.21-.61,.55-.72,.93-.07,.21-.07,.41-.03,.62,0,.21,.07,.4,.19,.58,.09,.13,.19,.25,.31,.36,.02,.12,.06,.23,.11,.33,.06,.19,.17,.36,.32,.5,.11,.08,.21,.16,.32,.24,.18,.11,.37,.18,.58,.19,.14,.04,.28,.04,.41,0,.21,0,.4-.07,.58-.19,.33-.21,.64-.54,.72-.93,.03-.15,.08-.3,.13-.44,.08-.17,.17-.33,.28-.48,.04-.05,.09-.1,.13-.15,.15-.14,.26-.31,.32-.5,.1-.19,.14-.39,.13-.6-.02-.14-.04-.28-.06-.41Z"/>
      <path class="cls-6" d="M158.8,233.67c-.07-.26-.21-.49-.4-.69-.14-.15-.31-.26-.5-.32-.41-.17-1.01-.21-1.39,.08-.24,.18-.48,.36-.69,.57-.21,.21-.39,.45-.57,.69-.29,.4-.5,.85-.67,1.32-.34,.93-.36,1.96-.15,2.92,.17,.75,1.02,1.26,1.77,1.12,.52,.13,1.11-.01,1.49-.41,.65-.67,1.14-1.55,1.31-2.47,.17-.93,.17-1.93-.21-2.82Z"/>
      <path class="cls-6" d="M163.16,222.98c0-.05-.02-.11-.04-.16-.05-.14-.11-.28-.17-.41,0-.01-.01-.03-.02-.04-.01-.03-.03-.05-.05-.08-.09-.13-.19-.26-.29-.38-.1-.11-.29-.24-.38-.3-.02-.02-.05-.03-.07-.05,0,0-.01,0-.02,0-.11-.05-.27-.12-.39-.16-.01,0-.03-.01-.04-.01-.01,0-.03,0-.04,0-.11-.02-.31-.05-.42-.06,0,0-.02,0-.03,0-.16,0-.36,.04-.5,.06-.2,.05-.38,.14-.53,.28-.09,.06-.14,.15-.21,.23-.02,.02-.05,.04-.07,.05-.02,.02-.03,.03-.05,.05-.06,.08-.19,.24-.25,.32,0,0,0,0,0,.01,0,0-.01,.02-.02,.03-.07,.14-.13,.28-.18,.43-.06,.17-.07,.37-.08,.55,0,.02,0,.05,0,.07,0,.01,0,.02,0,.03,.01,.15,.04,.3,.06,.45,0,.05,.02,.1,.04,.15,.06,.15,.12,.35,.22,.5,.04,.06,.1,.13,.14,.19,.04,.06,.09,.12,.14,.18,.02,.02,.03,.04,.05,.05,.28,.25,.44,.34,.79,.46,.17,.06,.36,.09,.54,.07,.16-.01,.32-.03,.48-.07,.01,0,.02,0,.04-.01,0,0,.01,0,.02,0,.12-.05,.27-.11,.39-.16,.02-.01,.04-.02,.07-.04,.09-.06,.24-.18,.32-.25,0,0,0,0,.01-.01,.01,0,.02-.02,.03-.03,.1-.11,.2-.23,.28-.36,0,0,.01-.02,.02-.03,0,0,0-.01,0-.02,.06-.12,.12-.26,.16-.39,0-.02,.02-.05,.02-.07,0-.01,0-.02,0-.04,.03-.15,.05-.3,.06-.45,.02-.18-.04-.43-.06-.57Z"/>
      <path class="cls-6" d="M157.91,245.81c0-.28-.07-.54-.21-.79,0-.02-.02-.04-.03-.06,0,0-.01-.02-.02-.03-.08-.11-.17-.23-.26-.34-.01-.02-.03-.03-.05-.05-.12-.1-.23-.2-.36-.28-.02-.01-.04-.02-.06-.03-.13-.06-.26-.12-.39-.17-.01,0-.02,0-.04-.01-.02,0-.04-.01-.06-.01-.14-.03-.3-.04-.44-.06-.01,0-.03,0-.04,0-.02,0-.04,0-.06,0-.01,0-.02,0-.03,0-.15,.01-.3,.04-.44,.06-.05,0-.09,.02-.14,.03-.14,.05-.29,.11-.43,.18-.02,.01-.04,.02-.06,.03,0,0-.02,.01-.03,.02-.11,.08-.23,.17-.33,.26-.02,.02-.04,.03-.05,.05,0,0-.01,.02-.02,.02-.08,.1-.18,.23-.26,.33-.01,.02-.03,.04-.04,.06-.03,.07-.06,.15-.09,.21-.02,.06-.06,.14-.09,.21,0,.02-.01,.05-.02,.07-.02,.14-.05,.3-.06,.44,0,.01,0,.02,0,.03,0,.01,0,.03,0,.04,0,.07,.03,.2,.03,.22,0,.04,.02,.15,.03,.23,0,.02,0,.04,.02,.06,.05,.13,.11,.27,.17,.39,0,.01,.01,.02,.02,.03,.08,.15,.2,.29,.32,.42,.02,.02,.03,.03,.05,.05,.11,.09,.22,.18,.34,.26,.01,0,.02,.01,.03,.02,.02,.01,.04,.02,.06,.03,.01,0,.02,0,.03,.01,.13,.06,.27,.12,.4,.17,.05,.02,.09,.03,.14,.04,.14,.02,.3,.05,.44,.06,.01,0,.03,0,.04,0,.03,0,.05,0,.08,0,.14-.01,.3-.04,.44-.06,.01,0,.03,0,.04,0,.02,0,.05-.01,.07-.02,.13-.05,.27-.11,.4-.17,.01,0,.02-.01,.03-.02,.01,0,.02-.01,.04-.02,0,0,0,0,.01,0,.1-.07,.23-.17,.33-.25,.02-.02,.04-.04,.05-.05,.05-.06,.2-.25,.25-.32,0,0,0-.01,.01-.02,0-.01,.02-.03,.02-.04,.11-.18,.18-.37,.19-.58,.03-.13,.03-.26,.01-.39,.01-.09,.02-.17,.04-.26Z"/>
      <path class="cls-6" d="M165.88,211.45c-.05-.12-.1-.25-.16-.37-.14-.23-.33-.42-.56-.56-.12-.05-.25-.1-.37-.16-.28-.07-.55-.07-.83,0-.38,.1-.68,.3-.97,.55-.02,.02-.04,.04-.06,.06-.1,.12-.2,.25-.29,.37-.04,.05-.06,.1-.09,.15-.07,.15-.17,.35-.21,.53-.04,.19-.07,.38-.08,.57,0,.19,.03,.39,.07,.57,.04,.19,.13,.37,.21,.53,.1,.18,.23,.33,.4,.44,.15,.14,.33,.23,.53,.28,.21,.07,.41,.07,.62,.03,.21,0,.4-.07,.58-.19l.32-.24c.19-.19,.33-.42,.4-.69,.02-.12,.03-.24,.05-.36,.1-.09,.21-.18,.28-.31,.11-.18,.18-.37,.19-.58,.05-.21,.04-.41-.03-.62Z"/>
      <path class="cls-6" d="M166.44,232.13c-.05-.2-.14-.38-.28-.53-.11-.17-.26-.3-.44-.4-.12-.05-.25-.1-.37-.16-.28-.07-.55-.07-.83,0-.12,.05-.25,.1-.37,.16-.23,.14-.42,.33-.56,.56-.35,.53-.71,1.06-1.06,1.59-.11,.18-.18,.37-.19,.58-.05,.21-.04,.41,.03,.62,.05,.2,.14,.38,.28,.53,.11,.17,.26,.3,.44,.4,.12,.05,.25,.1,.37,.16,.28,.07,.55,.07,.83,0,.12-.05,.25-.1,.37-.16,.23-.14,.42-.33,.56-.56,.35-.53,.71-1.06,1.06-1.59,.11-.18,.18-.37,.19-.58,.05-.21,.04-.41-.03-.62Z"/>
      <path class="cls-6" d="M234.24,280.87c-.07-.26-.21-.49-.4-.69-.11-.08-.21-.16-.32-.24-.24-.14-.51-.21-.79-.21h-.53c-.21,0-.42,.04-.6,.13-.19,.06-.36,.17-.5,.32-.15,.14-.26,.31-.32,.5-.1,.19-.14,.39-.13,.6,.02,.14,.04,.28,.06,.41,.07,.26,.21,.49,.4,.69l.32,.24c.24,.14,.51,.21,.79,.21h.53c.21,0,.42-.04,.6-.13,.19-.06,.36-.17,.5-.32,.15-.14,.26-.31,.32-.5,.1-.19,.14-.39,.13-.6l-.06-.41Z"/>
      <path class="cls-6" d="M241.74,278.13c-2.01,0-2.01,3.12,0,3.12s2.01-3.12,0-3.12Z"/>
      <path class="cls-7" d="M102.19,285.71s0-.03,0-.05c-.01-.09-.02-.18-.04-.28-.05-.18-.14-.33-.27-.46-.01-.01-.02-.02-.03-.03-.07-.06-.15-.12-.22-.17,0,0-.01,0-.02-.01-.1-.06-.21-.11-.32-.13,0,0-.01,0-.02,0-.1-.02-.2-.03-.29-.04-.01,0-.03,0-.04,0,0,0-.02,0-.02,0-.09,0-.2,.02-.29,.04-.02,0-.03,0-.05,0-.11,.03-.22,.08-.33,.14-.01,0-.03,.01-.04,.02,0,0-.01,0-.02,.01-.08,.05-.15,.12-.23,.17-.02,.02-.05,.04-.06,.06-.06,.07-.12,.15-.17,.22,0,0,0,.01-.01,.02,0,.01-.01,.02-.02,.04-.02,.04-.09,.19-.12,.28,0,0,0,.01,0,.02,0,0,0,0,0,0-.01,.07-.03,.21-.04,.28,0,.01,0,.03,0,.04,0,.05,.01,.11,.02,.16,0,.04,.01,.11,.02,.16,0,.01,0,.03,.01,.04,.03,.08,.07,.18,.11,.26,0,0,0,.01,.01,.02,0,.01,.01,.02,.02,.03,.05,.07,.11,.15,.17,.22,0,0,.01,.01,.02,.02,.04,.04,.09,.07,.13,.11,.04,.03,.09,.07,.14,.1,.01,0,.02,.01,.04,.02,.08,.04,.18,.08,.26,.11,0,0,.01,0,.02,0,.01,0,.03,0,.04,.01,.1,.02,.21,.03,.31,.04,.03,0,.06,0,.09,0,0,0,.01,0,.02,0,.1,0,.2-.02,.3-.04,.02,0,.03,0,.05-.01,0,0,.01,0,.02,0,.09-.03,.18-.07,.27-.11,.01,0,.03-.01,.04-.02,0,0,.01,0,.02-.01,.06-.04,.16-.12,.22-.17,0,0,0,0,0,0,.01,0,.02-.02,.03-.03,0,0,0,0,0,0,.05-.06,.12-.15,.17-.22,0,0,0-.01,.01-.02,0,0,0-.01,.01-.02,.04-.09,.08-.18,.11-.27,.04-.14,.05-.28,.02-.41,0-.06-.04-.1-.05-.16Z"/>
      <path class="cls-7" d="M114.51,281c-.05-.18-.14-.33-.27-.46-.07-.05-.14-.11-.21-.16-.16-.09-.34-.14-.53-.14h-.53c-.14,0-.28,.02-.4,.09-.13,.04-.24,.11-.33,.22-.1,.09-.17,.21-.22,.33-.07,.12-.09,.26-.09,.4l.04,.28c.05,.18,.14,.33,.27,.46,.07,.05,.14,.11,.21,.16,.16,.09,.34,.14,.53,.14h.53c.14,0,.28-.02,.4-.09,.13-.04,.24-.11,.33-.22,.1-.09,.17-.21,.22-.33,.07-.12,.09-.26,.09-.4-.01-.09-.02-.18-.04-.28Z"/>
      <path class="cls-7" d="M143.5,263.93c-.11-.2-.29-.34-.5-.43-.13-.05-.26-.07-.38-.07-.07-.04-.14-.09-.22-.11-.27-.06-.57-.05-.8,.1-.23,.15-.4,.35-.48,.62-.05,.17-.1,.33-.15,.5-.04,.03-.08,.07-.11,.1-.19,.18-.3,.48-.3,.74,0,.11,.03,.22,.07,.33-.03,.09-.05,.18-.08,.27-.01,.09-.02,.18-.04,.28l.04,.28c.06,.22,.2,.4,.37,.54,.33,.25,.79,.29,1.16,.08,.96-.55,1.56-1.6,1.57-2.7,0-.17-.05-.38-.14-.53Z"/>
      <path class="cls-7" d="M150.43,246.69c-.06-.31-.33-.56-.6-.67-.12-.05-.23-.07-.34-.08-.13-.06-.27-.1-.42-.1-.26,.01-.57,.09-.74,.3-.17,.21-.33,.42-.44,.67-.11,.25-.22,.51-.27,.78,0,0,0,.02,0,.02-.02,.06-.05,.11-.07,.17-.05,.18-.07,.37-.09,.56-.03,.29,.01,.59,.08,.87,.07,.25,.25,.49,.48,.62,.14,.08,.32,.12,.5,.12,.05,0,.09,.03,.14,.03,.19,0,.36-.05,.53-.14,.14-.11,.29-.21,.42-.34,.13-.13,.24-.27,.34-.42,.17-.23,.28-.48,.38-.74,.21-.53,.22-1.12,.11-1.67Z"/>
      <path class="cls-7" d="M155.72,228.9c-.04-.13-.11-.24-.22-.33-.07-.05-.14-.11-.21-.16-.16-.09-.34-.14-.53-.14-.03,0-.07,0-.1,.01-.06-.11-.14-.2-.24-.26-.1-.09-.22-.15-.35-.19-.09-.01-.18-.02-.28-.04-.19,0-.36,.05-.53,.14-.07,.05-.14,.11-.21,.16-.13,.13-.22,.28-.27,.46-.03,.11-.04,.23-.05,.34,0,.03,0,.05,0,.08,0,.1,.02,.2,.04,.3,0,.01,0,.02,0,.03,0,.02,.01,.05,.02,.07,.05,.12,.09,.26,.17,.36,.08,.11,.16,.22,.26,.31,.1,.08,.21,.18,.33,.24,.1,.05,.2,.09,.3,.13,.03,.01,.05,.02,.08,.03,.28,.08,.54,.07,.83,.02,.14-.03,.27-.09,.39-.16,.1-.06,.18-.13,.27-.2,.02-.02,.04-.04,.06-.07,.1-.09,.17-.21,.22-.33,.07-.12,.09-.26,.09-.4,0-.14-.02-.28-.09-.4Z"/>
      <path class="cls-7" d="M160.61,216.89c-.03-.14-.09-.25-.19-.35-.07-.11-.17-.2-.29-.27-.08-.04-.17-.07-.25-.1-.18-.05-.37-.05-.55,0-.08,.04-.17,.07-.25,.1-.16,.09-.28,.22-.37,.37-.18,.35-.35,.71-.53,1.06-.08,.12-.12,.25-.12,.39-.03,.14-.02,.28,.02,.41,.03,.14,.09,.25,.19,.35,.07,.11,.17,.2,.29,.27,.08,.03,.17,.07,.25,.1,.18,.05,.37,.05,.55,0,.08-.03,.17-.07,.25-.1,.16-.09,.28-.22,.37-.37,.18-.35,.35-.71,.53-1.06,.08-.12,.12-.25,.12-.39,.03-.14,.02-.28-.02-.41Z"/>
      <path class="cls-7" d="M171.09,217.62c-.22-.42-.55-.74-.92-1.02-.4-.3-.87-.46-1.36-.51-.43-.05-.93,.07-1.3,.32-.27,.07-.52,.17-.75,.34-.35,.27-.56,.61-.72,1.01-.29,.72-.12,1.57,.41,2.14,.16,.17,.39,.26,.63,.28,.02,.02,.04,.04,.06,.06,.35,.31,.73,.53,1.17,.68,.44,.15,.9,.16,1.35,.08,1-.17,1.7-1.09,1.76-2.06,.03-.45-.12-.91-.33-1.31Zm-2.62,.99s-.04-.06-.06-.1c0-.01,0-.02-.01-.04,0-.01,0-.03,0-.04,0-.03,.01-.06,.02-.1,0-.02,0-.05,0-.08,.03-.01,.06-.02,.08-.04,.02-.01,.05-.02,.07-.04,.01,0,.02,0,.04-.01,.01,0,.03,0,.04,0,.05,.01,.09,.02,.14,.04,.07,.04,.13,.07,.2,.12,.07,.06,.13,.13,.19,.2,.04,.06,.07,.12,.1,.18,.01,.04,.02,.08,.03,.12,0,.01,0,.03,0,.04,0,0,0,.01,0,.02,0,.01-.01,.02-.02,.03,0,0-.01,.01-.02,.02,0,0-.01,0-.02,0-.01,0-.03,0-.04,.01-.04,0-.09,0-.13,0-.08-.02-.16-.04-.24-.06-.09-.04-.17-.09-.25-.15-.05-.04-.09-.09-.13-.13Z"/>
      <path class="cls-7" d="M229.44,280.88c-.04-.13-.11-.24-.22-.33-.07-.05-.14-.11-.21-.16-.16-.09-.34-.14-.53-.14-.09,.01-.18,.02-.28,.04-.18,.05-.33,.14-.46,.27l-.53,.53c-.1,.09-.17,.21-.22,.33-.07,.12-.09,.26-.09,.4,0,.14,.02,.28,.09,.4,.04,.13,.11,.24,.22,.33,.07,.05,.14,.11,.21,.16,.16,.09,.34,.14,.53,.14,.09-.01,.18-.02,.28-.04,.18-.05,.33-.14,.46-.27l.53-.53c.1-.09,.17-.21,.22-.33,.07-.12,.09-.26,.09-.4,0-.14-.02-.28-.09-.4Z"/>
      <path class="cls-7" d="M239.62,281.83c-1.34,0-1.34,2.08,0,2.08s1.34-2.08,0-2.08Z"/>
      <path class="cls-7" d="M237.5,277.59c-1.34,0-1.34,2.08,0,2.08s1.34-2.08,0-2.08Z"/>
      <path class="cls-7" d="M154.84,249.51c-1.34,0-1.34,2.08,0,2.08s1.34-2.08,0-2.08Z"/>
      <path class="cls-7" d="M151.13,238.38c-1.34,0-1.34,2.08,0,2.08s1.34-2.08,0-2.08Z"/>
      <path class="cls-7" d="M167.55,225.13c-1.34,0-1.34,2.08,0,2.08s1.34-2.08,0-2.08Z"/>
      <path class="cls-4" d="M107.26,291.88s13.61,.57,19.94-4.23c-4.87,7.43-16.52,5.76-19.94,4.23Z"/>
      <path class="cls-2" d="M186.79,236.23c-.76,1.05-1.51,2.13-2.27,3.2-.56,1.01-1.2,1.97-1.92,2.89-.36,.46-.75,.89-1.14,1.31-2.01,2.63-4.19,5.12-6.75,7.19-1.48,2.7-1.68,6.28,.66,8.57,2.34,2.28,6.03,2.25,8.99,1.5,6.17-1.55,12.41-5.9,14.06-12,6.5-24.05-10.22-14.6-11.63-12.66Z"/>
      <path class="cls-2" d="M172.23,264c-.69-1.63-1.95-2.8-3.59-3.43-1.7-.66-3.59-.37-4.99,.79-1.87,.82-3.36,2.57-3.84,4.56-.68,2.81,.73,5.68,3.34,6.93,2.54,1.22,5.73,1.02,7.74-1.11,1.92-2.03,2.43-5.18,1.35-7.74Z"/>
    </g>
  </g>
</svg>