<?xml version="1.0" encoding="utf-8"?>
<!-- Generator: Adobe Illustrator 26.5.0, SVG Export Plug-In . SVG Version: 6.00 Build 0)  -->
<svg version="1.1" id="Capa_1" xmlns="http://www.w3.org/2000/svg" xmlns:xlink="http://www.w3.org/1999/xlink" x="0px" y="0px"
	 viewBox="0 0 20 20" style="enable-background:new 0 0 20 20;" xml:space="preserve">
<style type="text/css">
	.st0{fill:#D8DFEA;}
	.st1{fill:#F41943;}
	.st2{fill:#BA0F38;}
	.st3{fill:#F9B906;}
	.st4{fill:#E8A615;}
	.st5{fill:#FFC943;}
	.st6{fill:#EBF2F2;}
	.st7{fill:#C3DBDA;}
	.st8{fill:#FFFFFF;}
	.st9{fill:#E37F22;}
	.st10{fill:#BA6017;}
	.st11{fill:#F79A4D;}
</style>
<g>
	<ellipse class="st0" cx="10" cy="18" rx="5.1" ry="0.2"/>
	<g>
		<g>
			<path class="st1" d="M10.9,17.4l1.4-2.2c0-0.1,0.1-0.1,0.2-0.1l2.5,0.6c0.1,0,0.2-0.1,0.2-0.2L13,10.3l-4.5,1.9l2.1,5.2
				C10.6,17.5,10.8,17.5,10.9,17.4z"/>
			<polygon class="st2" points="11.6,12.8 10.2,16.3 8.7,12.8 			"/>
			<path class="st1" d="M11.5,12.2l-0.2,0.6L10.4,15l0,0.1L10,15.9l-0.6,1.5c-0.1,0.1-0.2,0.1-0.3,0l-1.4-2.2c0-0.1-0.1-0.1-0.2-0.1
				l-2.5,0.6c-0.1,0-0.2-0.1-0.2-0.2L7,10.3L11.5,12.2z"/>
			<path class="st2" d="M13.6,11.9C13.4,12,12,13.2,10,13.2c-0.4,0-0.8,0-1.1-0.1c-0.9-0.2-1.8-0.6-2.5-1.3L7,10.3l0.7,0.3l0.1,0
				l2.2,0.9l2.2-0.9l0.1,0l0.7-0.3L13.6,11.9z"/>
		</g>
		<g>
			<circle class="st6" cx="10" cy="7.8" r="5"/>
			<circle class="st7" cx="10" cy="7.8" r="4.6"/>
			<circle class="st6" cx="10" cy="7.8" r="4.3"/>
			<path class="st8" d="M12.2,4.1l-6,5.6C5.9,9.1,5.7,8.5,5.7,7.8c0-0.5,0.1-1,0.2-1.4l3-2.7c0.3-0.1,0.7-0.1,1-0.1
				C10.8,3.5,11.5,3.7,12.2,4.1z"/>
			<path class="st8" d="M14,6.2l-5.9,5.4c-0.6-0.3-1.1-0.7-1.5-1.2L13,4.7C13.4,5.1,13.8,5.6,14,6.2z"/>
		</g>
	</g>
</g>
</svg>
