<?xml version="1.0" encoding="utf-8"?>
<!-- Generator: Adobe Illustrator 26.5.0, SVG Export Plug-In . SVG Version: 6.00 Build 0)  -->
<svg version="1.1" id="Capa_1" xmlns="http://www.w3.org/2000/svg" xmlns:xlink="http://www.w3.org/1999/xlink" x="0px" y="0px"
	 viewBox="0 0 20 20" style="enable-background:new 0 0 20 20;" xml:space="preserve">
<style type="text/css">
	.st0{fill:#D8DFEA;}
	.st1{fill:#F41943;}
	.st2{fill:#BA0F38;}
	.st3{fill:#F9B906;}
	.st4{fill:#E8A615;}
	.st5{fill:#FFC943;}
	.st6{fill:#EBF2F2;}
	.st7{fill:#C3DBDA;}
	.st8{fill:#FFFFFF;}
	.st9{fill:#E37F22;}
	.st10{fill:#BA6017;}
	.st11{fill:#F79A4D;}
</style>
<g>
	<ellipse class="st0" cx="10" cy="17.5" rx="5.1" ry="0.2"/>
	<g>
		<g>
			<path class="st1" d="M10.9,16.9l1.4-2.1c0-0.1,0.1-0.1,0.2-0.1l2.5,0.6c0.1,0,0.2-0.1,0.2-0.2L13,9.8l-4.5,1.8l2.1,5.1
				C10.6,17,10.8,17,10.9,16.9z"/>
			<polygon class="st2" points="11.6,12.3 10.2,15.8 8.7,12.3 			"/>
			<path class="st1" d="M11.5,11.7l-0.2,0.6l-0.9,2.2l0,0.1L10,15.4l-0.6,1.4c-0.1,0.1-0.2,0.1-0.3,0l-1.4-2.1
				c0-0.1-0.1-0.1-0.2-0.1l-2.5,0.6c-0.1,0-0.2-0.1-0.2-0.2L7,9.8L11.5,11.7z"/>
			<path class="st2" d="M13.6,11.4c-0.2,0.2-1.6,1.4-3.6,1.4c-0.4,0-0.8,0-1.1-0.1C8,12.4,7.1,12,6.4,11.4L7,9.8l0.7,0.3l0.1,0
				l2.2,0.9l2.2-0.9l0.1,0L13,9.8L13.6,11.4z"/>
		</g>
		<g>
			<circle class="st3" cx="10" cy="7.3" r="5"/>
			<circle class="st4" cx="10" cy="7.3" r="4.5"/>
			<circle class="st3" cx="10" cy="7.3" r="4.3"/>
			<path class="st5" d="M12.2,3.6l-6,5.5C5.9,8.6,5.7,8,5.7,7.3c0-0.5,0.1-1,0.2-1.4l3-2.7C9.3,3.1,9.6,3,10,3
				C10.8,3,11.5,3.3,12.2,3.6z"/>
			<path class="st5" d="M14,5.7l-5.8,5.4C7.6,10.8,7,10.4,6.6,9.9l6.3-5.7C13.4,4.6,13.7,5.2,14,5.7z"/>
		</g>
	</g>
</g>
</svg>
