<?xml version="1.0" encoding="utf-8"?>
<!-- Generator: Adobe Illustrator 26.5.0, SVG Export Plug-In . SVG Version: 6.00 Build 0)  -->
<svg version="1.1" id="Capa_1" xmlns="http://www.w3.org/2000/svg" xmlns:xlink="http://www.w3.org/1999/xlink" x="0px" y="0px"
	 viewBox="0 0 20 20" style="enable-background:new 0 0 20 20;" xml:space="preserve">
<style type="text/css">
	.st0{fill:#D8DFEA;}
	.st1{fill:#F41943;}
	.st2{fill:#BA0F38;}
	.st3{fill:#F9B906;}
	.st4{fill:#E8A615;}
	.st5{fill:#FFC943;}
	.st6{fill:#EBF2F2;}
	.st7{fill:#C3DBDA;}
	.st8{fill:#FFFFFF;}
	.st9{fill:#E37F22;}
	.st10{fill:#BA6017;}
	.st11{fill:#F79A4D;}
</style>
<g>
	<ellipse class="st0" cx="10.4" cy="17.7" rx="5.2" ry="0.2"/>
	<g>
		<g>
			<path class="st1" d="M11.3,17.1l1.4-2.2c0-0.1,0.1-0.1,0.2-0.1l2.5,0.6c0.1,0,0.2-0.1,0.2-0.2L13.4,10l-4.6,1.9l2.1,5.2
				C11,17.2,11.2,17.2,11.3,17.1z"/>
			<polygon class="st2" points="12,12.4 10.5,16 9.1,12.4 			"/>
			<path class="st1" d="M11.9,11.8l-0.2,0.6l-0.9,2.3l0,0.1l-0.3,0.8l-0.6,1.5c-0.1,0.1-0.2,0.1-0.3,0l-1.4-2.2
				c0-0.1-0.1-0.1-0.2-0.1l-2.5,0.6c-0.1,0-0.2-0.1-0.2-0.2L7.3,10L11.9,11.8z"/>
			<path class="st2" d="M14,11.5c-0.2,0.2-1.6,1.4-3.7,1.4c-0.4,0-0.8,0-1.2-0.1c-0.9-0.2-1.8-0.6-2.5-1.3L7.3,10L8,10.3l0.1,0
				l2.3,0.9l2.3-0.9l0.1,0l0.7-0.3L14,11.5z"/>
		</g>
		<g>
			<circle class="st9" cx="10.4" cy="7.4" r="5.1"/>
			<circle class="st10" cx="10.4" cy="7.4" r="4.6"/>
			<circle class="st9" cx="10.4" cy="7.4" r="4.3"/>
			<path class="st11" d="M12.6,3.6L6.5,9.3C6.2,8.7,6,8.1,6,7.4c0-0.5,0.1-1,0.2-1.4l3-2.8c0.3-0.1,0.7-0.1,1-0.1
				C11.2,3.1,11.9,3.3,12.6,3.6z"/>
			<path class="st11" d="M14.4,5.8l-5.9,5.5C7.9,11,7.4,10.6,7,10l6.4-5.8C13.8,4.7,14.2,5.2,14.4,5.8z"/>
		</g>
	</g>
</g>
</svg>
